<?xml version="1.0"?>
<svg xmlns="http://www.w3.org/2000/svg" height="512px" viewBox="0 0 60 60" width="512px"><g><g id="Page-1" fill="none" fill-rule="evenodd"><g id="047---Student-At-Desk" fill="rgb(0,0,0)" fill-rule="nonzero"><path id="Shape" d="m57 33h-14v-5c-.0049584-3.8639376-3.1360624-6.9950416-7-7h-1v-3.048c1.664-1.825 2.973-4.177 3-6.21v-9.742h4v2.184c-1.1943509.42225455-1.9947486 1.54921457-2 2.816v2c0 1.1045695.8954305 2 2 2h2c1.1045695 0 2-.8954305 2-2v-2c-.0052514-1.26678543-.8056491-2.39374545-2-2.816v-2.184c.5522847 0 1-.44771525 1-1s-.4477153-1-1-1h-28c-.5522847 0-1 .44771525-1 1s.4477153 1 1 1h6v9.756c.027 2.025 1.336 4.374 3 6.2v3.044h-1c-3.8639376.0049584-6.9950416 3.1360624-7 7v5h-14c-1.65685425 0-3 1.3431458-3 3s1.34314575 3 3 3h3v19c0 1.1045695.8954305 2 2 2h2c1.1045695 0 2-.8954305 2-2v-3h36v3c0 1.1045695.8954305 2 2 2h2c1.1045695 0 2-.8954305 2-2v-19h3c1.6568542 0 3-1.3431458 3-3s-1.3431458-3-3-3zm-15-24v-2c0-.55228475.4477153-1 1-1s1 .44771525 1 1v2zm-15 10.756c.8545073.7029961 1.8987619 1.1360137 3 1.244 1.1012381-.1079863 2.1454927-.5410039 3-1.244v1.954c-.731966.8906156-1.8500676 1.3713993-3 1.29-1.1492666.0812744-2.2668996-.3981901-3-1.287zm9-17.756v5h-12v-5zm-12 7h12v2.729c-.039 2.971-4.242 7.271-6 7.271s-5.961-4.3-6-7.258zm-5 19c.0033061-2.7600532 2.2399468-4.9966939 5-5h1.476c1.1092819 1.3413938 2.7853041 2.0823408 4.524 2 1.7386959.0823408 3.4147181-.6586062 4.524-2h1.476c2.7600532.0033061 4.9966939 2.2399468 5 5v5h-22zm-11 30v-19h2v19zm4-14h36v2h-36zm0-2v-3h36v3zm0 11v-5h36v5zm40 5h-2v-19h2zm5-21h-54c-.55228475 0-1-.4477153-1-1s.44771525-1 1-1h54c.5522847 0 1 .4477153 1 1s-.4477153 1-1 1z" data-original="#000000" class="active-path" data-old_color="#000000" fill="#FFFFFF"/></g></g></g> </svg>
