<svg height="512" viewBox="0 0 61 60" width="512" xmlns="http://www.w3.org/2000/svg"><g id="Page-1" fill="none" fill-rule="evenodd"><g id="043---Passed-Assignment" fill="rgb(0,0,0)" fill-rule="nonzero"><path id="Shape" d="m32.293 19.707c.3904999.3903819 1.0235001.3903819 1.414 0l3-3c.3789722-.3923789.3735524-1.0160848-.0121814-1.4018186s-1.0094397-.3911536-1.4018186-.0121814l-2.293 2.293-.293-.293c-.3923789-.3789722-1.0160848-.3735524-1.4018186.0121814s-.3911536 1.0094397-.0121814 1.4018186z"/><path id="Shape" d="m6 19h20c.5522847 0 1-.4477153 1-1s-.4477153-1-1-1h-20c-.55228475 0-1 .4477153-1 1s.44771525 1 1 1z"/><path id="Shape" d="m32.293 25.707c.3904999.3903819 1.0235001.3903819 1.414 0l3-3c.3789722-.3923789.3735524-1.0160848-.0121814-1.4018186s-1.0094397-.3911536-1.4018186-.0121814l-2.293 2.293-.293-.293c-.3923789-.3789722-1.0160848-.3735524-1.4018186.0121814s-.3911536 1.0094397-.0121814 1.4018186z"/><path id="Shape" d="m6 25h20c.5522847 0 1-.4477153 1-1s-.4477153-1-1-1h-20c-.55228475 0-1 .4477153-1 1s.44771525 1 1 1z"/><path id="Shape" d="m32.293 31.707c.3904999.3903819 1.0235001.3903819 1.414 0l3-3c.3789722-.3923789.3735524-1.0160848-.0121814-1.4018186s-1.0094397-.3911536-1.4018186-.0121814l-2.293 2.293-.293-.293c-.3923789-.3789722-1.0160848-.3735524-1.4018186.0121814s-.3911536 1.0094397-.0121814 1.4018186z"/><path id="Shape" d="m6 31h20c.5522847 0 1-.4477153 1-1s-.4477153-1-1-1h-20c-.55228475 0-1 .4477153-1 1s.44771525 1 1 1z"/><path id="Shape" d="m36.707 33.293c-.3904999-.3903819-1.0235001-.3903819-1.414 0l-2.293 2.293-.293-.293c-.3923789-.3789722-1.0160848-.3735524-1.4018186.0121814s-.3911536 1.0094397-.0121814 1.4018186l1 1c.3904999.3903819 1.0235001.3903819 1.414 0l3-3c.3903819-.3904999.3903819-1.0235001 0-1.414z"/><path id="Shape" d="m51.181 41.427-6.317 9.023-2.157-2.157c-.3923789-.3789722-1.0160848-.3735524-1.4018186.0121814s-.3911536 1.0094397-.0121814 1.4018186l3 3c.1874927.1875494.4418052.2929434.707.293.0289807.0014957.0580193.0014957.087 0 .2945354-.0258521.5625321-.180719.732-.423l7-10c.2178449-.2921912.259472-.679762.1086459-1.0115504s-.4702176-.5552454-.833604-.5832174c-.3633863-.027972-.7132141.1439713-.9130419.4487678z"/><path id="Shape" d="m27 36c0-.5522847-.4477153-1-1-1h-20c-.55228475 0-1 .4477153-1 1s.44771525 1 1 1h20c.5522847 0 1-.4477153 1-1z"/><path id="Shape" d="m17.9 43.553c-.187968-.3152706-.5279475-.5083906-.895-.5083906s-.707032.19312-.895.5083906l-4 8c-.1596977.3197527-.1366785.7004141.0603866.9985928.1970651.2981786.5382372.4685741.895.447.3567629-.0215741.6749157-.2318401.8346134-.5515928l1.218-2.447h3.764l1.223 2.447c.2468713.4942948.8477051.6948712 1.342.448.4942948-.2468713.6948713-.8477052.448-1.342zm-1.782 4.447.882-1.764.882 1.764z"/><path id="Shape" d="m27 45h-1v-1c0-.5522847-.4477153-1-1-1s-1 .4477153-1 1v1h-1c-.5522847 0-1 .4477153-1 1s.4477153 1 1 1h1v1c0 .5522847.4477153 1 1 1s1-.4477153 1-1v-1h1c.5522847 0 1-.4477153 1-1s-.4477153-1-1-1z"/><path id="Shape" d="m47 34c-1.0107332.0036114-2.0175747.1254392-3 .363v-22.363c-.0000566-.2651948-.1054506-.5195073-.293-.707l-11-11c-.1874927-.18754937-.4418052-.29294336-.707-.293h-29c-1.65685425 0-3 1.34314575-3 3v54c0 1.6568542 1.34314575 3 3 3h38c.6875791-.0036281 1.3530452-.2433371 1.885-.679 4.8853814 1.644049 10.2806857.2463603 13.753353-3.5628956s4.366691-9.3104887 2.278986-14.0233792c-2.0877049-4.7128905-6.762759-7.7471466-11.917339-7.7347252zm-14-30.586 7.586 7.586h-6.586c-.5522847 0-1-.4477153-1-1zm-30 54.586c-.55228475 0-1-.4477153-1-1v-54c0-.55228475.44771525-1 1-1h28v8c0 1.6568542 1.3431458 3 3 3h8v22c-4.4888645 1.8629077-7.5610849 6.077237-7.9612065 10.9208134-.4001215 4.8435764 1.9388911 9.5049206 6.0612065 12.0791866zm44 0c-6.0751322 0-11-4.9248678-11-11s4.9248678-11 11-11 11 4.9248678 11 11c-.0071635 6.0721626-4.9278374 10.9928365-11 11z"/></g></g></svg>